# xmcd
#
# Track frame offsets:
#       150
#       40513
#       59484
#       73886
#       93411
#       107086
#       123297
#       133346
#       152369
#       166724
#       221878
#       236529
#       252322
#       266127
#       284450
#       296664
#       314029
#
# Disc length: 4400 seconds
#
# Revision: 2
# Processed by: cddbd v1.5.1PL0 Copyright (c) Steve Scherf et al.
# Submitted via: WhereIsIt 3.65
#
DISCID=08112e11
DTITLE=Various Artist - Na Country Svatbe
DYEAR=1900
DGENRE=Country
TTITLE0=Ruzni zpevaci - Bajecna zenska ...
TTITLE1=/ Dzinova laska
TTITLE2=/ Velrybarska vyprava
TTITLE3=/ Ascalona
TTITLE4=/ Nakladak
TTITLE5=/ Pojd me krasne hrat
TTITLE6=/ To se budem prima mit
TTITLE7=/ Zbejva jen louceni
TTITLE8=/ Frankie Dlouhan
TTITLE9=/ Sundej z hodin zavazi ...
TTITLE10=/ Kapela snu
TTITLE11=/ Country bal
TTITLE12=/ Blaznova ukolebavka
TTITLE13=/ Dobrej den
TTITLE14=/ Haj modrinu
TTITLE15=/ Az ztichnou bile skaly
TTITLE16=/ Vsem zenam
EXTD=
EXTT0=
EXTT1=
EXTT2=
EXTT3=
EXTT4=
EXTT5=
EXTT6=
EXTT7=
EXTT8=
EXTT9=
EXTT10=
EXTT11=
EXTT12=
EXTT13=
EXTT14=
EXTT15=
EXTT16=
PLAYORDER=
